HIERARCHY
ROOT Hips
{
	OFFSET -3.958830 18.904000 13.208200
	CHANNELS 6 Xposition Yposition Zposition Zrotation Yrotation Xrotation 
	JOINT LHipJoint
	{
		OFFSET 0.000000 0.000000 0.000000
		CHANNELS 3 Zrotation Yrotation Xrotation
		JOINT LeftUpLeg
		{
			OFFSET 1.800000 -1.400000 0.085000
			CHANNELS 3 Zrotation Yrotation Xrotation
			JOINT LeftLeg
			{
				OFFSET 2.215000 -6.000000 0.000000
				CHANNELS 3 Zrotation Yrotation Xrotation
				JOINT LeftFoot
				{
					OFFSET 2.500000 -6.900000 0.000000
					CHANNELS 3 Zrotation Yrotation Xrotation
					JOINT LeftToeBase
					{
						OFFSET 0.200000 -0.500000 1.950000
						CHANNELS 3 Zrotation Yrotation Xrotation
						End Site
						{
							OFFSET 0.000000 0.000000 0.000000
						}
					}
				}
			}
		}
	}
	JOINT RHipJoint
	{
		OFFSET 0.000000 0.000000 0.000000
		CHANNELS 3 Zrotation Yrotation Xrotation
		JOINT RightUpLeg
		{
			OFFSET -1.800000 -1.400000 0.085000
			CHANNELS 3 Zrotation Yrotation Xrotation
			JOINT RightLeg
			{
				OFFSET -2.215000 -6.000000 0.000000
				CHANNELS 3 Zrotation Yrotation Xrotation
				JOINT RightFoot
				{
					OFFSET -2.500000 -6.900000 0.000000
					CHANNELS 3 Zrotation Yrotation Xrotation
					JOINT RightToeBase
					{
						OFFSET -0.200000 -0.500000 1.950000
						CHANNELS 3 Zrotation Yrotation Xrotation
						End Site
						{
							OFFSET 0.000000 0.000000 0.000000
						}
					}
				}
			}
		}
	}
	JOINT LowerBack
	{
		OFFSET 0.000000 0.000000 0.000000
		CHANNELS 3 Zrotation Yrotation Xrotation
		JOINT Spine
		{
			OFFSET -0.087000 1.940000 -0.288900
			CHANNELS 3 Zrotation Yrotation Xrotation
			JOINT Spine1
			{
				OFFSET 0.000000 1.950000 0.060000
				CHANNELS 3 Zrotation Yrotation Xrotation
				JOINT Neck
				{
					OFFSET 0.000000 0.000000 0.000000
					CHANNELS 3 Zrotation Yrotation Xrotation
					JOINT Neck1
					{
						OFFSET 0.000000 1.600000 0.340000
						CHANNELS 3 Zrotation Yrotation Xrotation
						JOINT Head
						{
							OFFSET 0.000000 1.667000 -0.240000
							CHANNELS 3 Zrotation Yrotation Xrotation
							End Site
							{
								OFFSET 0.000000 0.000000 0.000000
							}
						}
					}
				}
				JOINT LeftShoulder
				{
					OFFSET 0.000000 0.000000 0.000000
					CHANNELS 3 Zrotation Yrotation Xrotation
					JOINT LeftArm
					{
						OFFSET 2.700000 1.550000 -0.730000
						CHANNELS 3 Zrotation Yrotation Xrotation
						JOINT LeftForeArm
						{
							OFFSET 5.450000 0.000000 0.000000
							CHANNELS 3 Zrotation Yrotation Xrotation
							JOINT LeftHand
							{
								OFFSET 3.450000 0.000000 0.000000
								CHANNELS 3 Zrotation Yrotation Xrotation
								JOINT LeftHandIndex1
								{
									OFFSET 0.750000 0.000000 0.000000
									CHANNELS 3 Zrotation Yrotation Xrotation
									End Site
									{
										OFFSET 0.000000 0.000000 0.000000
									}
								}
							}
						}
					}
				}
				JOINT RightShoulder
				{
					OFFSET 0.000000 0.000000 0.000000
					CHANNELS 3 Zrotation Yrotation Xrotation
					JOINT RightArm
					{
						OFFSET -2.700000 1.550000 -0.730000
						CHANNELS 3 Zrotation Yrotation Xrotation
						JOINT RightForeArm
						{
							OFFSET -5.450000 0.000000 0.000000
							CHANNELS 3 Zrotation Yrotation Xrotation
							JOINT RightHand
							{
								OFFSET -3.450000 0.000000 0.000000
								CHANNELS 3 Zrotation Yrotation Xrotation
								JOINT RightHandIndex1
								{
									OFFSET -0.750000 0.000000 0.000000
									CHANNELS 3 Zrotation Yrotation Xrotation
									End Site
									{
										OFFSET 0.000000 0.000000 0.000000
									}
								}
							}
						}
					}
				}
			}
		}
	}
}
MOTION
Frames: 6
Frame Time: 0.016667
-1.449910 17.395320 -1.020680 -1.512403 6.327959 -4.990015 -14.817628 12.051484 3.755686 3.464670 -4.398182 -31.734914 -6.090964 3.714745 9.123470 -1.119173 2.796576 3.605604 0.714530 0.494050 0.428610 18.672824 -11.397584 2.593421 1.660440 2.836944 -10.939139 0.645734 -7.423512 42.376960 -0.903235 -6.630260 2.083112 0.518020 0.325840 0.187380 -4.751745 0.242748 -7.787028 16.913161 -1.397960 25.446113 -9.450214 3.773041 17.545833 0.533586 -2.763118 -7.812860 -6.938531 -2.471051 32.580659 1.693080 -5.440810 -16.951680 5.498010 -31.301137 -1.430719 22.047384 -45.002122 -12.838556 50.394258 -38.573503 -17.718439 -3.900903 2.774162 0.416680 0.154100 -0.069990 0.272590 -7.564767 32.636495 4.755884 -12.733502 25.586218 -13.546380 -63.683147 41.177368 -25.371430 1.809030 -1.529579 -0.240350 0.472040 -0.032330 -0.161490 
-1.438760 17.477580 -0.972990 -0.983212 7.556372 -5.235040 -14.802969 12.090083 3.720490 2.471830 -4.660463 -31.453185 -5.699012 3.999207 11.735286 -1.083088 2.889916 3.574054 0.677800 0.431740 0.406520 18.681082 -11.464735 2.591570 1.480638 2.754992 -10.922994 0.226895 -7.327040 42.701350 -0.893287 -6.651464 2.085938 0.469470 0.323560 0.181360 -4.816591 0.309518 -7.763247 17.265801 -1.314520 25.270710 -10.288196 3.896629 17.759685 0.648824 -2.683566 -7.905154 -7.357670 -2.973282 34.064818 2.413150 -6.312470 -16.407490 3.273264 -30.450045 -1.325518 15.498571 -46.805287 -9.834950 56.996396 -45.192471 -23.478164 -3.815824 2.603240 0.425290 0.139500 -0.082960 0.262940 -5.650966 31.405140 5.695904 -7.596437 24.691013 -12.469417 -73.555437 46.172553 -34.003110 1.673167 -1.299339 -0.242180 0.451610 -0.019830 -0.162780 
-1.426610 17.567390 -0.912330 -0.350049 8.624217 -5.020142 -14.803850 12.116802 3.715507 1.597715 -4.920551 -31.369025 -5.409518 4.312070 14.305013 -0.994389 3.006336 3.531802 0.658200 0.411770 0.376750 18.679910 -11.476790 2.604184 1.531827 2.975821 -11.760705 -0.664988 -7.003095 43.836677 -0.900014 -6.721237 2.076814 0.428700 0.314720 0.177510 -4.844056 0.317406 -7.758943 17.341096 -1.018495 24.607143 -10.878087 4.103840 17.779532 0.778396 -2.693744 -8.074010 -8.005208 -3.345699 35.690430 3.018160 -7.168350 -15.509350 1.476746 -28.750696 -1.284787 6.020378 -47.986779 -4.851853 65.525086 -52.419724 -31.916889 -3.675833 2.344660 0.403830 0.125860 -0.086620 0.273550 -4.186520 29.549999 6.692812 -1.665374 24.341023 -10.446857 -84.834435 50.161308 -45.430657 1.553395 -1.016316 -0.213040 0.416560 -0.033490 -0.141010 
-1.419060 17.664430 -0.847480 -0.046747 9.540429 -5.108702 -14.803794 12.139427 3.680668 1.211263 -5.047198 -31.033432 -5.283755 4.770276 17.240077 -0.979594 3.338440 3.411670 0.598200 0.314320 0.356970 18.683555 -11.456417 2.664263 2.121546 3.416025 -12.796171 -1.800906 -6.603507 45.522608 -0.919419 -6.850939 2.035946 0.377210 0.328840 0.176320 -4.874282 0.333042 -7.765076 17.619982 -0.935685 24.362826 -11.513663 4.223672 17.945128 1.064498 -2.642894 -8.350966 -8.391322 -3.527858 37.066829 3.111460 -7.594220 -15.574250 -0.225084 -26.777792 -1.314529 -3.309781 -47.956039 0.472952 75.878683 -58.887070 -43.056722 -3.539257 1.833040 0.447030 0.124150 -0.098390 0.247080 -3.031648 27.328545 7.885713 4.724256 24.134409 -7.967037 -96.978728 52.336489 -59.995321 1.512189 -0.731895 -0.250900 0.426600 0.010070 -0.163760 
-1.406970 17.754310 -0.783920 0.381808 10.448611 -5.118321 -14.825686 12.174335 3.667432 0.594401 -5.239354 -30.718805 -5.105018 5.312089 20.521359 -0.925159 3.741455 3.260175 0.517180 0.207680 0.313900 18.669568 -11.349600 2.769948 2.765148 4.280207 -14.634137 -3.085130 -6.185435 48.523197 -0.967181 -7.141233 1.948618 0.308930 0.343500 0.158350 -4.845493 0.210992 -7.820421 17.550248 -0.827929 24.429857 -11.854894 4.431490 17.957492 1.307000 -2.908073 -9.056429 -9.443006 -3.462525 38.518735 3.932520 -8.241430 -15.672810 -1.950595 -24.827670 -0.723867 -12.867206 -47.692381 6.408401 87.881694 -62.953519 -57.138374 -3.444034 1.192831 0.483060 0.112850 -0.115000 0.210800 -1.753512 25.520522 9.021516 10.302025 23.572367 -5.521124 -108.283822 53.621419 -76.738320 1.641731 -0.695814 -0.283260 0.437190 0.062330 -0.175110 
-1.393590 17.824420 -0.716360 0.574099 12.019175 -5.429608 -14.857688 12.220743 3.632283 0.127103 -5.373040 -30.180218 -4.657687 5.854248 24.141534 -0.817627 4.194574 3.085108 0.499720 0.162910 0.324060 18.648354 -11.206084 2.910334 3.574122 5.165070 -16.303271 -4.112654 -5.989074 52.137074 -1.095957 -7.564300 1.811531 0.255970 0.298440 0.153810 -4.806649 0.038974 -7.906283 17.668204 -1.084048 24.880563 -11.872250 4.408947 17.924912 1.737256 -3.445134 -9.950785 -11.034118 -3.405458 40.154739 4.497210 -8.918670 -16.579040 -4.231787 -22.837054 0.602621 -21.379676 -47.034759 12.061392 99.046384 -66.220424 -74.622204 -3.522087 0.803735 0.532740 0.060280 -0.083120 0.198040 -0.162289 24.063418 9.665443 15.049497 22.441721 -4.063485 -119.038910 55.428640 -95.701462 1.826726 -1.000091 -0.275630 0.414820 0.056520 -0.185720 
